<svg id="visual" viewBox="0 0 960 540" width="960" height="540" xmlns="http://www.w3.org/2000/svg" xmlns:xlink="http://www.w3.org/1999/xlink" version="1.1"><path d="M0 236L32 236.2C64 236.3 128 236.7 192 240.7C256 244.7 320 252.3 384 265.2C448 278 512 296 576 308C640 320 704 326 768 318.8C832 311.7 896 291.3 928 281.2L960 271L960 541L928 541C896 541 832 541 768 541C704 541 640 541 576 541C512 541 448 541 384 541C320 541 256 541 192 541C128 541 64 541 32 541L0 541Z" fill="#fcaf3c"></path><path d="M0 317L32 326.2C64 335.3 128 353.7 192 354.8C256 356 320 340 384 334.8C448 329.7 512 335.3 576 342C640 348.7 704 356.3 768 362.7C832 369 896 374 928 376.5L960 379L960 541L928 541C896 541 832 541 768 541C704 541 640 541 576 541C512 541 448 541 384 541C320 541 256 541 192 541C128 541 64 541 32 541L0 541Z" fill="#ee852b"></path><path d="M0 398L32 406.3C64 414.7 128 431.3 192 440C256 448.7 320 449.3 384 443.3C448 437.3 512 424.7 576 423C640 421.3 704 430.7 768 437.7C832 444.7 896 449.3 928 451.7L960 454L960 541L928 541C896 541 832 541 768 541C704 541 640 541 576 541C512 541 448 541 384 541C320 541 256 541 192 541C128 541 64 541 32 541L0 541Z" fill="#dd5a24"></path><path d="M0 427L32 438.3C64 449.7 128 472.3 192 472.2C256 472 320 449 384 445.8C448 442.7 512 459.3 576 460.3C640 461.3 704 446.7 768 445.5C832 444.3 896 456.7 928 462.8L960 469L960 541L928 541C896 541 832 541 768 541C704 541 640 541 576 541C512 541 448 541 384 541C320 541 256 541 192 541C128 541 64 541 32 541L0 541Z" fill="#c72424"></path></svg>